<?xml version="1.0" standalone="no"?><!DOCTYPE svg PUBLIC "-//W3C//DTD SVG 1.1//EN" "http://www.w3.org/Graphics/SVG/1.1/DTD/svg11.dtd"><svg class="icon" height="512" viewBox="0 0 1024 1024" version="1.1" xmlns="http://www.w3.org/2000/svg"><path d="M511.98 610.708c32.88 0 60.02-26.982 60.02-60.142V303.2c0-33.166-27.132-60.15-60.002-60.15S452 270.032 452 303.2v247.368c0 33.158 27.124 60.14 59.98 60.14z" fill="#FFFFFF" /><path d="M984.626 672.06L670.216 129.98c-38.7-66.682-96.102-104.926-157.484-104.926-61.376 0-118.764 38.234-157.46 104.914L40.77 672.232C2.394 738.862-2.064 807.44 28.54 860.38 59.258 913.522 121.308 944 198.78 944h627.934c61.906 0 112.9-18.59 147.476-53.758 28.868-29.364 43.736-67.59 43.006-110.55-0.596-34.934-11.524-71.094-32.57-107.632zM826.714 882H198.78c-115.292 0-162.296-80.446-105.096-179.76L408.094 160.37c57.648-99.334 151.66-99.188 209.31 0.146l314.4 542.124c16.088 27.932 23.934 53.968 24.338 77.6 1.03 60.39-46.554 101.76-129.428 101.76z" fill="#FFFFFF" /><path d="M512.75 646.264c-44.538 0-80.77 36.236-80.77 80.778 0 44.53 36.232 80.758 80.77 80.758 44.53 0 80.756-36.228 80.756-80.758 0-44.542-36.226-80.778-80.756-80.778z" fill="#FFFFFF" /><path d="M617.404 160.632c-57.65-99.334-151.662-99.362-209.31-0.028L93.684 702.24C36.484 801.554 83.49 882 198.78 882h627.934c82.874 0 130.458-41.34 129.428-101.732-0.404-23.63-8.25-49.874-24.338-77.804l-314.4-541.832zM452 303.2c0-33.166 27.128-60.15 59.998-60.15S572 270.032 572 303.2v247.368c0 33.16-27.138 60.142-60.02 60.142-32.858 0-59.98-26.982-59.98-60.142V303.2z m60.75 504.598c-44.538 0-80.77-36.228-80.77-80.758 0-44.542 36.232-80.778 80.77-80.778 44.53 0 80.756 36.236 80.756 80.778 0 44.53-36.226 80.758-80.756 80.758z" fill="#EF2B2B" /></svg>